<?xml version="1.0" encoding="utf-8"?>
<!-- Generator: Adobe Illustrator 26.0.0, SVG Export Plug-In . SVG Version: 6.00 Build 0)  -->
<svg version="1.1" id="Layer_2" xmlns="http://www.w3.org/2000/svg" xmlns:xlink="http://www.w3.org/1999/xlink" x="0px" y="0px"
	 viewBox="0 0 3000 3000" style="enable-background:new 0 0 3000 3000;" xml:space="preserve">
<style type="text/css">
	.st0{fill:#FFFFFF;}
	.st1{fill:#000080;}
	.st2{fill:#FFBF00;}
</style>
<g>
	<path class="st0" d="M2383.94,1057.15v1563.06c0,43.78-35.49,79.27-79.27,79.27H695.32c-43.78,0-79.27-35.49-79.27-79.27V379.79
		c0-43.78,35.49-79.27,79.27-79.27h931.99c21.02,0,41.18,8.35,56.05,23.22l677.37,677.37
		C2375.59,1015.97,2383.94,1036.13,2383.94,1057.15z"/>
	<path class="st1" d="M1660.15,221.23H616.03c-43.78,0-79.27,35.49-79.27,79.27v2399c0,43.78,35.49,79.27,79.27,79.27h1767.94
		c43.78,0,79.27-35.49,79.27-79.27V1024.32c0-21.02-8.35-41.18-23.22-56.05L1716.2,244.45
		C1701.33,229.58,1681.17,221.23,1660.15,221.23z M2304.68,2699.48H695.32c-43.78,0-79.27-35.49-79.27-79.27V379.79
		c0-43.78,35.49-79.27,79.27-79.27h931.99c21.02,0,41.18,8.35,56.05,23.22l677.37,677.37c14.87,14.87,23.22,35.03,23.22,56.05
		v1563.06C2383.94,2663.99,2348.46,2699.48,2304.68,2699.48z"/>
	<polygon class="st1" points="1090.42,2142.07 1090.42,494.42 726.91,494.42 726.91,2142.07 726.91,2505.58 1834.12,2505.58 
		1834.12,2142.07 	"/>
	<rect x="1943.81" y="1158.25" class="st1" width="329.29" height="1347.33"/>
	<g>
		<rect x="1233.25" y="816.29" class="st2" width="533.49" height="126.77"/>
		<rect x="1233.25" y="1254.86" class="st2" width="533.49" height="126.77"/>
		<rect x="1233.25" y="1693.43" class="st2" width="533.49" height="126.77"/>
	</g>
	<rect x="1943.45" y="533.2" class="st2" width="330" height="330"/>
</g>
</svg>
